<svg id="visual" viewBox="0 0 960 540" width="960" height="540" xmlns="http://www.w3.org/2000/svg" xmlns:xlink="http://www.w3.org/1999/xlink" version="1.1"><g stroke-width="1" stroke-linejoin="bevel"><path d="M499 250L399 251L515 304Z" fill="#15384f" stroke="#15384f"></path><path d="M399 251L395 346L515 304Z" fill="#297ea6" stroke="#297ea6"></path><path d="M395 346L515 396L515 304Z" fill="#19435d" stroke="#19435d"></path><path d="M395 346L396 408L515 396Z" fill="#15384f" stroke="#15384f"></path><path d="M515 396L586 353L515 304Z" fill="#277297" stroke="#277297"></path><path d="M515 304L602 204L499 250Z" fill="#205a7a" stroke="#205a7a"></path><path d="M586 353L602 204L515 304Z" fill="#0c2435" stroke="#0c2435"></path><path d="M499 250L455 100L399 251Z" fill="#00101c" stroke="#00101c"></path><path d="M572 139L455 100L499 250Z" fill="#19435d" stroke="#19435d"></path><path d="M602 204L572 139L499 250Z" fill="#205a7a" stroke="#205a7a"></path><path d="M356 115L252 252L399 251Z" fill="#246688" stroke="#246688"></path><path d="M399 251L252 252L395 346Z" fill="#0c2435" stroke="#0c2435"></path><path d="M395 346L231 424L396 408Z" fill="#00101c" stroke="#00101c"></path><path d="M455 100L356 115L399 251Z" fill="#1d4e6b" stroke="#1d4e6b"></path><path d="M515 396L616 409L586 353Z" fill="#081a28" stroke="#081a28"></path><path d="M586 353L686 308L602 204Z" fill="#277297" stroke="#277297"></path><path d="M621 540L616 409L515 396Z" fill="#00101c" stroke="#00101c"></path><path d="M252 252L239 284L395 346Z" fill="#112e42" stroke="#112e42"></path><path d="M616 409L686 308L586 353Z" fill="#297ea6" stroke="#297ea6"></path><path d="M602 204L692 203L572 139Z" fill="#0c2435" stroke="#0c2435"></path><path d="M364 540L440 540L396 408Z" fill="#205a7a" stroke="#205a7a"></path><path d="M396 408L440 540L515 396Z" fill="#205a7a" stroke="#205a7a"></path><path d="M239 284L231 424L395 346Z" fill="#19435d" stroke="#19435d"></path><path d="M686 308L692 203L602 204Z" fill="#112e42" stroke="#112e42"></path><path d="M231 424L364 540L396 408Z" fill="#0c2435" stroke="#0c2435"></path><path d="M616 409L695 441L686 308Z" fill="#246688" stroke="#246688"></path><path d="M809 225L751 121L692 203Z" fill="#0c2435" stroke="#0c2435"></path><path d="M621 540L695 441L616 409Z" fill="#081a28" stroke="#081a28"></path><path d="M590 0L452 0L455 100Z" fill="#1d4e6b" stroke="#1d4e6b"></path><path d="M455 100L386 0L356 115Z" fill="#112e42" stroke="#112e42"></path><path d="M590 0L455 100L572 139Z" fill="#297ea6" stroke="#297ea6"></path><path d="M440 540L621 540L515 396Z" fill="#205a7a" stroke="#205a7a"></path><path d="M452 0L386 0L455 100Z" fill="#0c2435" stroke="#0c2435"></path><path d="M356 115L208 93L252 252Z" fill="#081a28" stroke="#081a28"></path><path d="M118 222L119 359L239 284Z" fill="#246688" stroke="#246688"></path><path d="M239 284L119 359L231 424Z" fill="#277297" stroke="#277297"></path><path d="M233 0L208 93L356 115Z" fill="#277297" stroke="#277297"></path><path d="M751 121L590 0L572 139Z" fill="#277297" stroke="#277297"></path><path d="M118 222L239 284L252 252Z" fill="#081a28" stroke="#081a28"></path><path d="M231 424L204 540L364 540Z" fill="#15384f" stroke="#15384f"></path><path d="M208 93L118 222L252 252Z" fill="#1d4e6b" stroke="#1d4e6b"></path><path d="M122 430L204 540L231 424Z" fill="#19435d" stroke="#19435d"></path><path d="M809 225L692 203L686 308Z" fill="#205a7a" stroke="#205a7a"></path><path d="M692 203L751 121L572 139Z" fill="#277297" stroke="#277297"></path><path d="M621 540L699 540L695 441Z" fill="#19435d" stroke="#19435d"></path><path d="M875 303L809 225L686 308Z" fill="#0c2435" stroke="#0c2435"></path><path d="M119 359L122 430L231 424Z" fill="#081a28" stroke="#081a28"></path><path d="M386 0L233 0L356 115Z" fill="#205a7a" stroke="#205a7a"></path><path d="M208 93L123 127L118 222Z" fill="#297ea6" stroke="#297ea6"></path><path d="M808 431L686 308L695 441Z" fill="#246688" stroke="#246688"></path><path d="M139 0L123 127L208 93Z" fill="#15384f" stroke="#15384f"></path><path d="M805 540L808 431L695 441Z" fill="#1d4e6b" stroke="#1d4e6b"></path><path d="M751 121L741 0L590 0Z" fill="#19435d" stroke="#19435d"></path><path d="M828 0L741 0L751 121Z" fill="#297ea6" stroke="#297ea6"></path><path d="M808 431L875 303L686 308Z" fill="#112e42" stroke="#112e42"></path><path d="M809 225L864 74L751 121Z" fill="#00101c" stroke="#00101c"></path><path d="M233 0L139 0L208 93Z" fill="#081a28" stroke="#081a28"></path><path d="M699 540L805 540L695 441Z" fill="#15384f" stroke="#15384f"></path><path d="M960 411L960 326L875 303Z" fill="#0c2435" stroke="#0c2435"></path><path d="M0 465L122 430L119 359Z" fill="#081a28" stroke="#081a28"></path><path d="M0 465L84 540L122 430Z" fill="#112e42" stroke="#112e42"></path><path d="M122 430L84 540L204 540Z" fill="#00101c" stroke="#00101c"></path><path d="M0 303L119 359L118 222Z" fill="#112e42" stroke="#112e42"></path><path d="M0 202L0 303L118 222Z" fill="#0c2435" stroke="#0c2435"></path><path d="M0 202L118 222L123 127Z" fill="#205a7a" stroke="#205a7a"></path><path d="M0 75L0 202L123 127Z" fill="#0c2435" stroke="#0c2435"></path><path d="M960 176L864 74L809 225Z" fill="#0c2435" stroke="#0c2435"></path><path d="M864 74L828 0L751 121Z" fill="#081a28" stroke="#081a28"></path><path d="M0 303L0 465L119 359Z" fill="#246688" stroke="#246688"></path><path d="M139 0L0 75L123 127Z" fill="#0c2435" stroke="#0c2435"></path><path d="M960 411L875 303L808 431Z" fill="#00101c" stroke="#00101c"></path><path d="M875 303L960 176L809 225Z" fill="#081a28" stroke="#081a28"></path><path d="M0 465L0 540L84 540Z" fill="#00101c" stroke="#00101c"></path><path d="M960 540L960 411L808 431Z" fill="#00101c" stroke="#00101c"></path><path d="M960 326L960 176L875 303Z" fill="#277297" stroke="#277297"></path><path d="M864 74L960 0L828 0Z" fill="#277297" stroke="#277297"></path><path d="M960 176L960 129L864 74Z" fill="#246688" stroke="#246688"></path><path d="M139 0L0 0L0 75Z" fill="#15384f" stroke="#15384f"></path><path d="M805 540L960 540L808 431Z" fill="#0c2435" stroke="#0c2435"></path><path d="M960 129L960 0L864 74Z" fill="#19435d" stroke="#19435d"></path></g></svg>